<mxfile host="Electron" modified="2024-03-18T06:35:32.746Z" agent="Mozilla/5.0 (Windows NT 10.0; Win64; x64) AppleWebKit/537.36 (KHTML, like Gecko) draw.io/23.0.2 Chrome/120.0.6099.109 Electron/28.1.0 Safari/537.36" etag="zQyjS9tkEzL1uuFQcarC" version="23.0.2" type="device">
  <diagram id="QnSt535gN6BoG8CxP7Cu" name="Sayfa -3">
    <mxGraphModel dx="1863" dy="606" grid="1" gridSize="10" guides="1" tooltips="1" connect="1" arrows="1" fold="1" page="1" pageScale="1" pageWidth="827" pageHeight="1169" math="0" shadow="0">
      <root>
        <mxCell id="0" />
        <mxCell id="1" parent="0" />
        <mxCell id="pjYpxmqP9JYvMsVC531_-1" value="User" style="whiteSpace=wrap;html=1;align=center;fillColor=#d5e8d4;strokeColor=#82b366;" parent="1" vertex="1">
          <mxGeometry x="390" y="200" width="100" height="40" as="geometry" />
        </mxCell>
        <mxCell id="pjYpxmqP9JYvMsVC531_-2" value="" style="endArrow=none;html=1;rounded=0;exitX=0.5;exitY=1;exitDx=0;exitDy=0;" parent="1" source="pjYpxmqP9JYvMsVC531_-1" target="pjYpxmqP9JYvMsVC531_-3" edge="1">
          <mxGeometry relative="1" as="geometry">
            <mxPoint x="370" y="400" as="sourcePoint" />
            <mxPoint x="440" y="280" as="targetPoint" />
          </mxGeometry>
        </mxCell>
        <mxCell id="pjYpxmqP9JYvMsVC531_-3" value="IS_A" style="triangle;whiteSpace=wrap;html=1;rotation=0;direction=north;fillColor=#fff2cc;strokeColor=#d6b656;" parent="1" vertex="1">
          <mxGeometry x="400" y="270" width="80" height="60" as="geometry" />
        </mxCell>
        <mxCell id="pjYpxmqP9JYvMsVC531_-6" value="ID" style="ellipse;whiteSpace=wrap;html=1;align=center;fontStyle=4;fillColor=#f8cecc;strokeColor=#b85450;" parent="1" vertex="1">
          <mxGeometry x="250" y="160" width="100" height="40" as="geometry" />
        </mxCell>
        <mxCell id="pjYpxmqP9JYvMsVC531_-11" value="Customer" style="whiteSpace=wrap;html=1;align=center;fillColor=#d5e8d4;strokeColor=#82b366;" parent="1" vertex="1">
          <mxGeometry x="220" y="410" width="100" height="40" as="geometry" />
        </mxCell>
        <mxCell id="pjYpxmqP9JYvMsVC531_-12" value="Admin" style="whiteSpace=wrap;html=1;align=center;fillColor=#d5e8d4;strokeColor=#82b366;" parent="1" vertex="1">
          <mxGeometry x="560" y="410" width="100" height="40" as="geometry" />
        </mxCell>
        <mxCell id="pjYpxmqP9JYvMsVC531_-13" value="Deliverer" style="whiteSpace=wrap;html=1;align=center;fillColor=#d5e8d4;strokeColor=#82b366;" parent="1" vertex="1">
          <mxGeometry x="390" y="410" width="100" height="40" as="geometry" />
        </mxCell>
        <mxCell id="VR3B4VwXzn4cEzZI7W3C-15" value="firstname" style="ellipse;whiteSpace=wrap;html=1;align=center;fillColor=#f8cecc;strokeColor=#b85450;" parent="1" vertex="1">
          <mxGeometry x="330" y="120" width="100" height="40" as="geometry" />
        </mxCell>
        <mxCell id="VR3B4VwXzn4cEzZI7W3C-16" value="lastname" style="ellipse;whiteSpace=wrap;html=1;align=center;fillColor=#f8cecc;strokeColor=#b85450;" parent="1" vertex="1">
          <mxGeometry x="450" y="120" width="100" height="40" as="geometry" />
        </mxCell>
        <mxCell id="VR3B4VwXzn4cEzZI7W3C-17" value="email" style="ellipse;whiteSpace=wrap;html=1;align=center;fillColor=#f8cecc;strokeColor=#b85450;" parent="1" vertex="1">
          <mxGeometry x="520" y="220" width="100" height="40" as="geometry" />
        </mxCell>
        <mxCell id="VR3B4VwXzn4cEzZI7W3C-18" value="Upassword" style="ellipse;whiteSpace=wrap;html=1;align=center;fillColor=#f8cecc;strokeColor=#b85450;" parent="1" vertex="1">
          <mxGeometry x="530" y="160" width="100" height="40" as="geometry" />
        </mxCell>
        <mxCell id="VR3B4VwXzn4cEzZI7W3C-19" value="phone_number" style="ellipse;whiteSpace=wrap;html=1;align=center;fillColor=#f8cecc;strokeColor=#b85450;" parent="1" vertex="1">
          <mxGeometry x="260" y="220" width="100" height="40" as="geometry" />
        </mxCell>
        <mxCell id="VR3B4VwXzn4cEzZI7W3C-20" value="creditcard_no" style="ellipse;whiteSpace=wrap;html=1;align=center;fillColor=#f8cecc;strokeColor=#b85450;" parent="1" vertex="1">
          <mxGeometry x="100" y="350" width="100" height="40" as="geometry" />
        </mxCell>
        <mxCell id="VR3B4VwXzn4cEzZI7W3C-24" style="edgeStyle=orthogonalEdgeStyle;rounded=0;orthogonalLoop=1;jettySize=auto;html=1;exitX=0.5;exitY=1;exitDx=0;exitDy=0;" parent="1" source="VR3B4VwXzn4cEzZI7W3C-17" target="VR3B4VwXzn4cEzZI7W3C-17" edge="1">
          <mxGeometry relative="1" as="geometry" />
        </mxCell>
        <mxCell id="VR3B4VwXzn4cEzZI7W3C-25" value="" style="endArrow=none;html=1;rounded=0;exitX=1;exitY=0.5;exitDx=0;exitDy=0;entryX=0;entryY=0.75;entryDx=0;entryDy=0;" parent="1" source="VR3B4VwXzn4cEzZI7W3C-19" target="pjYpxmqP9JYvMsVC531_-1" edge="1">
          <mxGeometry relative="1" as="geometry">
            <mxPoint x="380" y="340" as="sourcePoint" />
            <mxPoint x="540" y="340" as="targetPoint" />
          </mxGeometry>
        </mxCell>
        <mxCell id="VR3B4VwXzn4cEzZI7W3C-26" value="" style="endArrow=none;html=1;rounded=0;exitX=1;exitY=1;exitDx=0;exitDy=0;entryX=0;entryY=0.25;entryDx=0;entryDy=0;" parent="1" source="pjYpxmqP9JYvMsVC531_-6" target="pjYpxmqP9JYvMsVC531_-1" edge="1">
          <mxGeometry relative="1" as="geometry">
            <mxPoint x="380" y="340" as="sourcePoint" />
            <mxPoint x="540" y="340" as="targetPoint" />
          </mxGeometry>
        </mxCell>
        <mxCell id="VR3B4VwXzn4cEzZI7W3C-27" value="" style="endArrow=none;html=1;rounded=0;exitX=0.5;exitY=1;exitDx=0;exitDy=0;" parent="1" source="VR3B4VwXzn4cEzZI7W3C-15" edge="1">
          <mxGeometry relative="1" as="geometry">
            <mxPoint x="380" y="340" as="sourcePoint" />
            <mxPoint x="420" y="200" as="targetPoint" />
          </mxGeometry>
        </mxCell>
        <mxCell id="VR3B4VwXzn4cEzZI7W3C-28" value="" style="endArrow=none;html=1;rounded=0;exitX=0.38;exitY=1.021;exitDx=0;exitDy=0;exitPerimeter=0;entryX=0.75;entryY=0;entryDx=0;entryDy=0;" parent="1" source="VR3B4VwXzn4cEzZI7W3C-16" target="pjYpxmqP9JYvMsVC531_-1" edge="1">
          <mxGeometry relative="1" as="geometry">
            <mxPoint x="380" y="340" as="sourcePoint" />
            <mxPoint x="540" y="340" as="targetPoint" />
          </mxGeometry>
        </mxCell>
        <mxCell id="VR3B4VwXzn4cEzZI7W3C-29" value="" style="endArrow=none;html=1;rounded=0;exitX=0;exitY=1;exitDx=0;exitDy=0;entryX=1;entryY=0.25;entryDx=0;entryDy=0;" parent="1" source="VR3B4VwXzn4cEzZI7W3C-18" target="pjYpxmqP9JYvMsVC531_-1" edge="1">
          <mxGeometry relative="1" as="geometry">
            <mxPoint x="380" y="340" as="sourcePoint" />
            <mxPoint x="540" y="340" as="targetPoint" />
          </mxGeometry>
        </mxCell>
        <mxCell id="VR3B4VwXzn4cEzZI7W3C-30" value="" style="endArrow=none;html=1;rounded=0;exitX=1;exitY=0.75;exitDx=0;exitDy=0;entryX=0;entryY=0.5;entryDx=0;entryDy=0;" parent="1" source="pjYpxmqP9JYvMsVC531_-1" target="VR3B4VwXzn4cEzZI7W3C-17" edge="1">
          <mxGeometry relative="1" as="geometry">
            <mxPoint x="380" y="340" as="sourcePoint" />
            <mxPoint x="540" y="340" as="targetPoint" />
          </mxGeometry>
        </mxCell>
        <mxCell id="VR3B4VwXzn4cEzZI7W3C-31" value="" style="endArrow=none;html=1;rounded=0;exitX=0.611;exitY=-0.057;exitDx=0;exitDy=0;exitPerimeter=0;entryX=0;entryY=0.25;entryDx=0;entryDy=0;" parent="1" source="pjYpxmqP9JYvMsVC531_-11" target="pjYpxmqP9JYvMsVC531_-3" edge="1">
          <mxGeometry relative="1" as="geometry">
            <mxPoint x="380" y="340" as="sourcePoint" />
            <mxPoint x="540" y="340" as="targetPoint" />
          </mxGeometry>
        </mxCell>
        <mxCell id="VR3B4VwXzn4cEzZI7W3C-32" value="" style="endArrow=none;html=1;rounded=0;entryX=0.5;entryY=0;entryDx=0;entryDy=0;exitX=0;exitY=0.5;exitDx=0;exitDy=0;" parent="1" source="pjYpxmqP9JYvMsVC531_-3" target="pjYpxmqP9JYvMsVC531_-13" edge="1">
          <mxGeometry relative="1" as="geometry">
            <mxPoint x="420" y="370" as="sourcePoint" />
            <mxPoint x="540" y="340" as="targetPoint" />
          </mxGeometry>
        </mxCell>
        <mxCell id="VR3B4VwXzn4cEzZI7W3C-33" value="" style="endArrow=none;html=1;rounded=0;exitX=0.5;exitY=0;exitDx=0;exitDy=0;entryX=0;entryY=0.75;entryDx=0;entryDy=0;" parent="1" source="pjYpxmqP9JYvMsVC531_-12" target="pjYpxmqP9JYvMsVC531_-3" edge="1">
          <mxGeometry relative="1" as="geometry">
            <mxPoint x="380" y="340" as="sourcePoint" />
            <mxPoint x="540" y="340" as="targetPoint" />
          </mxGeometry>
        </mxCell>
        <mxCell id="VR3B4VwXzn4cEzZI7W3C-35" value="" style="endArrow=none;html=1;rounded=0;exitX=0.5;exitY=0;exitDx=0;exitDy=0;entryX=0.5;entryY=1;entryDx=0;entryDy=0;" parent="1" source="L0EKZaJUMJl1NmGvqvD9-3" target="pjYpxmqP9JYvMsVC531_-13" edge="1">
          <mxGeometry relative="1" as="geometry">
            <mxPoint x="380" y="340" as="sourcePoint" />
            <mxPoint x="670" y="380" as="targetPoint" />
          </mxGeometry>
        </mxCell>
        <mxCell id="VR3B4VwXzn4cEzZI7W3C-36" value="" style="endArrow=none;html=1;rounded=0;exitX=1;exitY=1;exitDx=0;exitDy=0;entryX=0.25;entryY=0;entryDx=0;entryDy=0;" parent="1" source="VR3B4VwXzn4cEzZI7W3C-20" target="pjYpxmqP9JYvMsVC531_-11" edge="1">
          <mxGeometry relative="1" as="geometry">
            <mxPoint x="380" y="340" as="sourcePoint" />
            <mxPoint x="540" y="340" as="targetPoint" />
          </mxGeometry>
        </mxCell>
        <mxCell id="VR3B4VwXzn4cEzZI7W3C-37" value="" style="endArrow=none;html=1;rounded=0;entryX=0.75;entryY=0;entryDx=0;entryDy=0;exitX=0.5;exitY=1;exitDx=0;exitDy=0;" parent="1" source="L0EKZaJUMJl1NmGvqvD9-2" target="pjYpxmqP9JYvMsVC531_-12" edge="1">
          <mxGeometry relative="1" as="geometry">
            <mxPoint x="630" y="490" as="sourcePoint" />
            <mxPoint x="540" y="340" as="targetPoint" />
          </mxGeometry>
        </mxCell>
        <mxCell id="s3yO4jc9BizlxFZRtK1E-1" value="Flower_arrangement" style="whiteSpace=wrap;html=1;align=center;fillColor=#d5e8d4;strokeColor=#82b366;" parent="1" vertex="1">
          <mxGeometry x="760" y="560" width="120" height="40" as="geometry" />
        </mxCell>
        <mxCell id="s3yO4jc9BizlxFZRtK1E-2" value="Ftype" style="ellipse;whiteSpace=wrap;html=1;align=center;fillColor=#f8cecc;strokeColor=#b85450;" parent="1" vertex="1">
          <mxGeometry x="880" y="520" width="100" height="40" as="geometry" />
        </mxCell>
        <mxCell id="s3yO4jc9BizlxFZRtK1E-3" value="Fsize" style="ellipse;whiteSpace=wrap;html=1;align=center;fillColor=#f8cecc;strokeColor=#b85450;" parent="1" vertex="1">
          <mxGeometry x="910" y="570" width="100" height="40" as="geometry" />
        </mxCell>
        <mxCell id="s3yO4jc9BizlxFZRtK1E-4" value="floral_description" style="ellipse;whiteSpace=wrap;html=1;align=center;fillColor=#f8cecc;strokeColor=#b85450;" parent="1" vertex="1">
          <mxGeometry x="864" y="620" width="100" height="40" as="geometry" />
        </mxCell>
        <mxCell id="s3yO4jc9BizlxFZRtK1E-5" value="price" style="ellipse;whiteSpace=wrap;html=1;align=center;fillColor=#f8cecc;strokeColor=#b85450;" parent="1" vertex="1">
          <mxGeometry x="646" y="600" width="100" height="40" as="geometry" />
        </mxCell>
        <mxCell id="s3yO4jc9BizlxFZRtK1E-6" value="Fname" style="ellipse;whiteSpace=wrap;html=1;align=center;fillColor=#f8cecc;strokeColor=#b85450;" parent="1" vertex="1">
          <mxGeometry x="770" y="510" width="100" height="40" as="geometry" />
        </mxCell>
        <mxCell id="s3yO4jc9BizlxFZRtK1E-8" value="quantity" style="ellipse;whiteSpace=wrap;html=1;align=center;fillColor=#f8cecc;strokeColor=#b85450;" parent="1" vertex="1">
          <mxGeometry x="750" y="620" width="100" height="40" as="geometry" />
        </mxCell>
        <mxCell id="s3yO4jc9BizlxFZRtK1E-9" value="FID" style="ellipse;whiteSpace=wrap;html=1;align=center;fontStyle=4;fillColor=#f8cecc;strokeColor=#b85450;" parent="1" vertex="1">
          <mxGeometry x="660" y="520" width="100" height="40" as="geometry" />
        </mxCell>
        <mxCell id="s3yO4jc9BizlxFZRtK1E-23" value="" style="endArrow=none;html=1;rounded=0;exitX=1;exitY=0;exitDx=0;exitDy=0;entryX=0;entryY=1;entryDx=0;entryDy=0;" parent="1" source="s3yO4jc9BizlxFZRtK1E-5" target="s3yO4jc9BizlxFZRtK1E-1" edge="1">
          <mxGeometry relative="1" as="geometry">
            <mxPoint x="735.0802126497683" y="605.7486636110316" as="sourcePoint" />
            <mxPoint x="820" y="550" as="targetPoint" />
          </mxGeometry>
        </mxCell>
        <mxCell id="s3yO4jc9BizlxFZRtK1E-24" value="" style="endArrow=none;html=1;rounded=0;exitX=0.5;exitY=0;exitDx=0;exitDy=0;entryX=0.5;entryY=1;entryDx=0;entryDy=0;" parent="1" source="s3yO4jc9BizlxFZRtK1E-8" target="s3yO4jc9BizlxFZRtK1E-1" edge="1">
          <mxGeometry relative="1" as="geometry">
            <mxPoint x="660" y="550" as="sourcePoint" />
            <mxPoint x="820" y="550" as="targetPoint" />
          </mxGeometry>
        </mxCell>
        <mxCell id="s3yO4jc9BizlxFZRtK1E-25" value="" style="endArrow=none;html=1;rounded=0;entryX=0;entryY=0;entryDx=0;entryDy=0;exitX=0.75;exitY=1;exitDx=0;exitDy=0;" parent="1" source="s3yO4jc9BizlxFZRtK1E-1" target="s3yO4jc9BizlxFZRtK1E-4" edge="1">
          <mxGeometry relative="1" as="geometry">
            <mxPoint x="660" y="550" as="sourcePoint" />
            <mxPoint x="820" y="550" as="targetPoint" />
          </mxGeometry>
        </mxCell>
        <mxCell id="s3yO4jc9BizlxFZRtK1E-26" value="" style="endArrow=none;html=1;rounded=0;entryX=0;entryY=0.5;entryDx=0;entryDy=0;exitX=1;exitY=0.5;exitDx=0;exitDy=0;" parent="1" source="s3yO4jc9BizlxFZRtK1E-1" target="s3yO4jc9BizlxFZRtK1E-3" edge="1">
          <mxGeometry relative="1" as="geometry">
            <mxPoint x="870" y="580" as="sourcePoint" />
            <mxPoint x="820" y="550" as="targetPoint" />
          </mxGeometry>
        </mxCell>
        <mxCell id="s3yO4jc9BizlxFZRtK1E-27" value="" style="endArrow=none;html=1;rounded=0;entryX=0;entryY=1;entryDx=0;entryDy=0;exitX=1;exitY=0.25;exitDx=0;exitDy=0;" parent="1" source="s3yO4jc9BizlxFZRtK1E-1" target="s3yO4jc9BizlxFZRtK1E-2" edge="1">
          <mxGeometry relative="1" as="geometry">
            <mxPoint x="660" y="550" as="sourcePoint" />
            <mxPoint x="820" y="550" as="targetPoint" />
          </mxGeometry>
        </mxCell>
        <mxCell id="s3yO4jc9BizlxFZRtK1E-28" value="" style="endArrow=none;html=1;rounded=0;entryX=0.5;entryY=1;entryDx=0;entryDy=0;exitX=0.5;exitY=0;exitDx=0;exitDy=0;" parent="1" source="s3yO4jc9BizlxFZRtK1E-1" target="s3yO4jc9BizlxFZRtK1E-6" edge="1">
          <mxGeometry relative="1" as="geometry">
            <mxPoint x="660" y="550" as="sourcePoint" />
            <mxPoint x="820" y="550" as="targetPoint" />
          </mxGeometry>
        </mxCell>
        <mxCell id="s3yO4jc9BizlxFZRtK1E-29" value="" style="endArrow=none;html=1;rounded=0;entryX=0;entryY=0.25;entryDx=0;entryDy=0;exitX=1;exitY=1;exitDx=0;exitDy=0;" parent="1" source="s3yO4jc9BizlxFZRtK1E-9" target="s3yO4jc9BizlxFZRtK1E-1" edge="1">
          <mxGeometry relative="1" as="geometry">
            <mxPoint x="660" y="550" as="sourcePoint" />
            <mxPoint x="820" y="550" as="targetPoint" />
          </mxGeometry>
        </mxCell>
        <mxCell id="ZfMULFJXqDdsZb5BxQUp-1" value="Orders" style="whiteSpace=wrap;html=1;align=center;fillColor=#d5e8d4;strokeColor=#82b366;" parent="1" vertex="1">
          <mxGeometry x="390" y="695" width="100" height="40" as="geometry" />
        </mxCell>
        <mxCell id="ZfMULFJXqDdsZb5BxQUp-3" value="OrderID" style="ellipse;whiteSpace=wrap;html=1;align=center;fontStyle=4;fillColor=#f8cecc;strokeColor=#b85450;" parent="1" vertex="1">
          <mxGeometry x="230" y="695" width="100" height="40" as="geometry" />
        </mxCell>
        <mxCell id="ZfMULFJXqDdsZb5BxQUp-4" value="gift_note" style="ellipse;whiteSpace=wrap;html=1;align=center;fillColor=#f8cecc;strokeColor=#b85450;" parent="1" vertex="1">
          <mxGeometry x="550" y="695" width="100" height="40" as="geometry" />
        </mxCell>
        <mxCell id="ZfMULFJXqDdsZb5BxQUp-5" value="order_date" style="ellipse;whiteSpace=wrap;html=1;align=center;fillColor=#f8cecc;strokeColor=#b85450;" parent="1" vertex="1">
          <mxGeometry x="270" y="760" width="100" height="40" as="geometry" />
        </mxCell>
        <mxCell id="ZfMULFJXqDdsZb5BxQUp-6" value="delivery_date" style="ellipse;whiteSpace=wrap;html=1;align=center;fillColor=#f8cecc;strokeColor=#b85450;" parent="1" vertex="1">
          <mxGeometry x="390" y="770" width="100" height="40" as="geometry" />
        </mxCell>
        <mxCell id="ZfMULFJXqDdsZb5BxQUp-9" value="paid_price" style="ellipse;whiteSpace=wrap;html=1;align=center;fillColor=#f8cecc;strokeColor=#b85450;" parent="1" vertex="1">
          <mxGeometry x="510" y="760" width="100" height="40" as="geometry" />
        </mxCell>
        <mxCell id="X-2DKhx6YCqOLQOkQXu8-1" style="edgeStyle=orthogonalEdgeStyle;rounded=0;orthogonalLoop=1;jettySize=auto;html=1;exitX=0.5;exitY=1;exitDx=0;exitDy=0;" parent="1" source="ZfMULFJXqDdsZb5BxQUp-5" target="ZfMULFJXqDdsZb5BxQUp-5" edge="1">
          <mxGeometry relative="1" as="geometry" />
        </mxCell>
        <mxCell id="X-2DKhx6YCqOLQOkQXu8-2" value="" style="endArrow=none;html=1;rounded=0;exitX=0;exitY=0.5;exitDx=0;exitDy=0;" parent="1" source="ZfMULFJXqDdsZb5BxQUp-1" edge="1">
          <mxGeometry relative="1" as="geometry">
            <mxPoint x="440" y="740" as="sourcePoint" />
            <mxPoint x="330" y="715" as="targetPoint" />
          </mxGeometry>
        </mxCell>
        <mxCell id="X-2DKhx6YCqOLQOkQXu8-3" value="" style="endArrow=none;html=1;rounded=0;entryX=0.5;entryY=0;entryDx=0;entryDy=0;exitX=0;exitY=1;exitDx=0;exitDy=0;" parent="1" source="ZfMULFJXqDdsZb5BxQUp-1" target="ZfMULFJXqDdsZb5BxQUp-5" edge="1">
          <mxGeometry relative="1" as="geometry">
            <mxPoint x="240" y="830" as="sourcePoint" />
            <mxPoint x="400" y="830" as="targetPoint" />
          </mxGeometry>
        </mxCell>
        <mxCell id="X-2DKhx6YCqOLQOkQXu8-4" value="" style="endArrow=none;html=1;rounded=0;entryX=0.5;entryY=0;entryDx=0;entryDy=0;exitX=0.5;exitY=1;exitDx=0;exitDy=0;" parent="1" source="ZfMULFJXqDdsZb5BxQUp-1" target="ZfMULFJXqDdsZb5BxQUp-6" edge="1">
          <mxGeometry relative="1" as="geometry">
            <mxPoint x="240" y="830" as="sourcePoint" />
            <mxPoint x="400" y="830" as="targetPoint" />
          </mxGeometry>
        </mxCell>
        <mxCell id="X-2DKhx6YCqOLQOkQXu8-5" value="" style="endArrow=none;html=1;rounded=0;entryX=1;entryY=1;entryDx=0;entryDy=0;" parent="1" source="ZfMULFJXqDdsZb5BxQUp-9" target="ZfMULFJXqDdsZb5BxQUp-1" edge="1">
          <mxGeometry relative="1" as="geometry">
            <mxPoint x="240" y="830" as="sourcePoint" />
            <mxPoint x="400" y="830" as="targetPoint" />
          </mxGeometry>
        </mxCell>
        <mxCell id="X-2DKhx6YCqOLQOkQXu8-6" value="" style="endArrow=none;html=1;rounded=0;exitX=1;exitY=0.5;exitDx=0;exitDy=0;entryX=0;entryY=0.5;entryDx=0;entryDy=0;" parent="1" source="ZfMULFJXqDdsZb5BxQUp-1" target="ZfMULFJXqDdsZb5BxQUp-4" edge="1">
          <mxGeometry relative="1" as="geometry">
            <mxPoint x="500" y="700" as="sourcePoint" />
            <mxPoint x="610" y="710" as="targetPoint" />
          </mxGeometry>
        </mxCell>
        <mxCell id="X-2DKhx6YCqOLQOkQXu8-18" value="contains" style="shape=rhombus;perimeter=rhombusPerimeter;whiteSpace=wrap;html=1;align=center;fillColor=#dae8fc;strokeColor=#6c8ebf;" parent="1" vertex="1">
          <mxGeometry x="520" y="580" width="120" height="60" as="geometry" />
        </mxCell>
        <mxCell id="X-2DKhx6YCqOLQOkQXu8-19" value="" style="endArrow=none;html=1;rounded=0;exitX=0;exitY=1;exitDx=0;exitDy=0;strokeWidth=3;endFill=0;startArrow=classic;startFill=1;entryX=1;entryY=0;entryDx=0;entryDy=0;" parent="1" source="X-2DKhx6YCqOLQOkQXu8-18" target="ZfMULFJXqDdsZb5BxQUp-1" edge="1">
          <mxGeometry relative="1" as="geometry">
            <mxPoint x="480" y="600" as="sourcePoint" />
            <mxPoint x="500" y="710" as="targetPoint" />
          </mxGeometry>
        </mxCell>
        <mxCell id="X-2DKhx6YCqOLQOkQXu8-20" value="" style="endArrow=none;html=1;rounded=0;entryX=1;entryY=0;entryDx=0;entryDy=0;exitX=0;exitY=0.5;exitDx=0;exitDy=0;" parent="1" source="s3yO4jc9BizlxFZRtK1E-1" target="X-2DKhx6YCqOLQOkQXu8-18" edge="1">
          <mxGeometry relative="1" as="geometry">
            <mxPoint x="939" y="720" as="sourcePoint" />
            <mxPoint x="879" y="530" as="targetPoint" />
          </mxGeometry>
        </mxCell>
        <mxCell id="X-2DKhx6YCqOLQOkQXu8-25" value="delivers" style="shape=rhombus;perimeter=rhombusPerimeter;whiteSpace=wrap;html=1;align=center;fillColor=#dae8fc;strokeColor=#6c8ebf;" parent="1" vertex="1">
          <mxGeometry x="310" y="510" width="120" height="60" as="geometry" />
        </mxCell>
        <mxCell id="X-2DKhx6YCqOLQOkQXu8-30" value="" style="endArrow=none;html=1;rounded=0;entryX=0.5;entryY=0;entryDx=0;entryDy=0;exitX=0;exitY=1;exitDx=0;exitDy=0;" parent="1" source="pjYpxmqP9JYvMsVC531_-13" target="X-2DKhx6YCqOLQOkQXu8-25" edge="1">
          <mxGeometry relative="1" as="geometry">
            <mxPoint x="340" y="470" as="sourcePoint" />
            <mxPoint x="950" y="670" as="targetPoint" />
          </mxGeometry>
        </mxCell>
        <mxCell id="X-2DKhx6YCqOLQOkQXu8-31" value="" style="endArrow=classic;html=1;rounded=0;entryX=0.5;entryY=1;entryDx=0;entryDy=0;exitX=0.25;exitY=0;exitDx=0;exitDy=0;strokeWidth=3;" parent="1" source="ZfMULFJXqDdsZb5BxQUp-1" target="X-2DKhx6YCqOLQOkQXu8-25" edge="1">
          <mxGeometry width="50" height="50" relative="1" as="geometry">
            <mxPoint x="850" y="700" as="sourcePoint" />
            <mxPoint x="900" y="650" as="targetPoint" />
          </mxGeometry>
        </mxCell>
        <mxCell id="X-2DKhx6YCqOLQOkQXu8-34" value="updates" style="shape=rhombus;perimeter=rhombusPerimeter;whiteSpace=wrap;html=1;align=center;fillColor=#dae8fc;strokeColor=#6c8ebf;" parent="1" vertex="1">
          <mxGeometry x="450" y="510" width="120" height="60" as="geometry" />
        </mxCell>
        <mxCell id="X-2DKhx6YCqOLQOkQXu8-35" value="" style="endArrow=none;html=1;rounded=0;exitX=1;exitY=1;exitDx=0;exitDy=0;entryX=0.5;entryY=0;entryDx=0;entryDy=0;" parent="1" source="pjYpxmqP9JYvMsVC531_-13" target="X-2DKhx6YCqOLQOkQXu8-34" edge="1">
          <mxGeometry relative="1" as="geometry">
            <mxPoint x="790" y="670" as="sourcePoint" />
            <mxPoint x="950" y="670" as="targetPoint" />
          </mxGeometry>
        </mxCell>
        <mxCell id="X-2DKhx6YCqOLQOkQXu8-36" value="" style="endArrow=none;html=1;rounded=0;exitX=0.75;exitY=0;exitDx=0;exitDy=0;entryX=0.5;entryY=1;entryDx=0;entryDy=0;" parent="1" source="ZfMULFJXqDdsZb5BxQUp-1" target="X-2DKhx6YCqOLQOkQXu8-34" edge="1">
          <mxGeometry relative="1" as="geometry">
            <mxPoint x="790" y="670" as="sourcePoint" />
            <mxPoint x="880" y="380" as="targetPoint" />
          </mxGeometry>
        </mxCell>
        <mxCell id="X-2DKhx6YCqOLQOkQXu8-39" value="Discount" style="whiteSpace=wrap;html=1;align=center;fillColor=#d5e8d4;strokeColor=#82b366;" parent="1" vertex="1">
          <mxGeometry x="20" y="562.5" width="100" height="40" as="geometry" />
        </mxCell>
        <mxCell id="X-2DKhx6YCqOLQOkQXu8-44" value="Sdate" style="ellipse;whiteSpace=wrap;html=1;align=center;fillColor=#f8cecc;strokeColor=#b85450;" parent="1" vertex="1">
          <mxGeometry x="10" y="620" width="100" height="36" as="geometry" />
        </mxCell>
        <mxCell id="X-2DKhx6YCqOLQOkQXu8-45" value="Edate" style="ellipse;whiteSpace=wrap;html=1;align=center;fillColor=#f8cecc;strokeColor=#b85450;" parent="1" vertex="1">
          <mxGeometry x="120" y="600" width="100" height="40" as="geometry" />
        </mxCell>
        <mxCell id="X-2DKhx6YCqOLQOkQXu8-46" value="discount_perc" style="ellipse;whiteSpace=wrap;html=1;align=center;fillColor=#f8cecc;strokeColor=#b85450;" parent="1" vertex="1">
          <mxGeometry x="-90" y="580" width="100" height="40" as="geometry" />
        </mxCell>
        <mxCell id="X-2DKhx6YCqOLQOkQXu8-48" value="" style="endArrow=none;html=1;rounded=0;exitX=0.5;exitY=0;exitDx=0;exitDy=0;entryX=0.5;entryY=1;entryDx=0;entryDy=0;" parent="1" source="X-2DKhx6YCqOLQOkQXu8-44" target="X-2DKhx6YCqOLQOkQXu8-39" edge="1">
          <mxGeometry relative="1" as="geometry">
            <mxPoint x="80" y="702.5" as="sourcePoint" />
            <mxPoint x="85" y="612.5" as="targetPoint" />
          </mxGeometry>
        </mxCell>
        <mxCell id="X-2DKhx6YCqOLQOkQXu8-49" value="" style="endArrow=none;html=1;rounded=0;exitX=0.282;exitY=0.035;exitDx=0;exitDy=0;entryX=1;entryY=0.75;entryDx=0;entryDy=0;exitPerimeter=0;" parent="1" source="X-2DKhx6YCqOLQOkQXu8-45" target="X-2DKhx6YCqOLQOkQXu8-39" edge="1">
          <mxGeometry relative="1" as="geometry">
            <mxPoint x="80" y="702.5" as="sourcePoint" />
            <mxPoint x="240" y="702.5" as="targetPoint" />
          </mxGeometry>
        </mxCell>
        <mxCell id="X-2DKhx6YCqOLQOkQXu8-51" value="enters" style="shape=rhombus;perimeter=rhombusPerimeter;whiteSpace=wrap;html=1;align=center;fillColor=#dae8fc;strokeColor=#6c8ebf;" parent="1" vertex="1">
          <mxGeometry x="120" y="480" width="120" height="60" as="geometry" />
        </mxCell>
        <mxCell id="X-2DKhx6YCqOLQOkQXu8-57" value="" style="endArrow=none;html=1;rounded=0;exitX=0.25;exitY=1;exitDx=0;exitDy=0;endFill=0;" parent="1" source="pjYpxmqP9JYvMsVC531_-11" target="X-2DKhx6YCqOLQOkQXu8-51" edge="1">
          <mxGeometry width="50" height="50" relative="1" as="geometry">
            <mxPoint x="140" y="710" as="sourcePoint" />
            <mxPoint x="260" y="510" as="targetPoint" />
          </mxGeometry>
        </mxCell>
        <mxCell id="X-2DKhx6YCqOLQOkQXu8-58" value="places" style="shape=rhombus;perimeter=rhombusPerimeter;whiteSpace=wrap;html=1;align=center;fillColor=#dae8fc;strokeColor=#6c8ebf;" parent="1" vertex="1">
          <mxGeometry x="240" y="580" width="120" height="60" as="geometry" />
        </mxCell>
        <mxCell id="EjhMBxmp9J60UOqUMtt8-8" value="" style="endArrow=none;html=1;rounded=0;exitX=0.93;exitY=0.295;exitDx=0;exitDy=0;entryX=0;entryY=0.5;entryDx=0;entryDy=0;exitPerimeter=0;" parent="1" source="X-2DKhx6YCqOLQOkQXu8-46" target="X-2DKhx6YCqOLQOkQXu8-39" edge="1">
          <mxGeometry relative="1" as="geometry">
            <mxPoint x="460" y="662.5" as="sourcePoint" />
            <mxPoint x="620" y="662.5" as="targetPoint" />
          </mxGeometry>
        </mxCell>
        <mxCell id="EjhMBxmp9J60UOqUMtt8-10" value="" style="endArrow=none;html=1;rounded=0;exitX=0.75;exitY=1;exitDx=0;exitDy=0;entryX=0.5;entryY=0;entryDx=0;entryDy=0;strokeWidth=1;" parent="1" source="pjYpxmqP9JYvMsVC531_-11" target="X-2DKhx6YCqOLQOkQXu8-58" edge="1">
          <mxGeometry relative="1" as="geometry">
            <mxPoint x="470" y="650" as="sourcePoint" />
            <mxPoint x="630" y="650" as="targetPoint" />
          </mxGeometry>
        </mxCell>
        <mxCell id="EjhMBxmp9J60UOqUMtt8-11" value="" style="endArrow=none;html=1;rounded=0;exitX=1;exitY=1;exitDx=0;exitDy=0;entryX=0;entryY=0;entryDx=0;entryDy=0;strokeWidth=3;startArrow=classic;startFill=1;" parent="1" source="X-2DKhx6YCqOLQOkQXu8-58" target="ZfMULFJXqDdsZb5BxQUp-1" edge="1">
          <mxGeometry relative="1" as="geometry">
            <mxPoint x="470" y="650" as="sourcePoint" />
            <mxPoint x="630" y="650" as="targetPoint" />
          </mxGeometry>
        </mxCell>
        <mxCell id="EjhMBxmp9J60UOqUMtt8-17" value="" style="endArrow=none;html=1;rounded=0;exitX=0;exitY=1;exitDx=0;exitDy=0;" parent="1" source="X-2DKhx6YCqOLQOkQXu8-34" target="EjhMBxmp9J60UOqUMtt8-18" edge="1">
          <mxGeometry relative="1" as="geometry">
            <mxPoint x="560" y="540" as="sourcePoint" />
            <mxPoint x="870" y="380" as="targetPoint" />
          </mxGeometry>
        </mxCell>
        <mxCell id="EjhMBxmp9J60UOqUMtt8-18" value="Ustatus" style="ellipse;whiteSpace=wrap;html=1;align=center;fillColor=#f8cecc;strokeColor=#b85450;" parent="1" vertex="1">
          <mxGeometry x="390" y="570" width="100" height="40" as="geometry" />
        </mxCell>
        <mxCell id="6j7PEMO-ISJ3xD6iglLl-2" value="" style="endArrow=none;html=1;rounded=0;exitX=0.738;exitY=1.005;exitDx=0;exitDy=0;entryX=0.25;entryY=0;entryDx=0;entryDy=0;exitPerimeter=0;" parent="1" source="8C47uoBnutYg47V_4T73-1" target="X-2DKhx6YCqOLQOkQXu8-39" edge="1">
          <mxGeometry relative="1" as="geometry">
            <mxPoint x="25.355339059327434" y="611.6421356237311" as="sourcePoint" />
            <mxPoint x="30" y="550" as="targetPoint" />
          </mxGeometry>
        </mxCell>
        <mxCell id="6j7PEMO-ISJ3xD6iglLl-3" value="" style="endArrow=classic;html=1;rounded=0;exitX=0.5;exitY=0;exitDx=0;exitDy=0;strokeWidth=3;entryX=0;entryY=1;entryDx=0;entryDy=0;" parent="1" source="X-2DKhx6YCqOLQOkQXu8-39" target="X-2DKhx6YCqOLQOkQXu8-51" edge="1">
          <mxGeometry width="50" height="50" relative="1" as="geometry">
            <mxPoint x="140" y="562.5" as="sourcePoint" />
            <mxPoint x="80" y="497.5" as="targetPoint" />
          </mxGeometry>
        </mxCell>
        <mxCell id="6j7PEMO-ISJ3xD6iglLl-4" value="Caddress" style="ellipse;whiteSpace=wrap;html=1;align=center;fillColor=#f8cecc;strokeColor=#b85450;" parent="1" vertex="1">
          <mxGeometry x="220" y="340" width="100" height="40" as="geometry" />
        </mxCell>
        <mxCell id="6j7PEMO-ISJ3xD6iglLl-5" value="" style="endArrow=none;html=1;rounded=0;entryX=0.5;entryY=0;entryDx=0;entryDy=0;exitX=0.5;exitY=1;exitDx=0;exitDy=0;" parent="1" source="6j7PEMO-ISJ3xD6iglLl-4" target="pjYpxmqP9JYvMsVC531_-11" edge="1">
          <mxGeometry relative="1" as="geometry">
            <mxPoint x="170" y="575" as="sourcePoint" />
            <mxPoint x="290" y="435" as="targetPoint" />
          </mxGeometry>
        </mxCell>
        <mxCell id="8C47uoBnutYg47V_4T73-1" value="discount_code" style="ellipse;whiteSpace=wrap;html=1;align=center;fontStyle=4;fillColor=#f8cecc;strokeColor=#b85450;" parent="1" vertex="1">
          <mxGeometry x="-50" y="510" width="100" height="40" as="geometry" />
        </mxCell>
        <mxCell id="L0EKZaJUMJl1NmGvqvD9-2" value="ssn" style="ellipse;whiteSpace=wrap;html=1;align=center;fillColor=#f8cecc;strokeColor=#b85450;" parent="1" vertex="1">
          <mxGeometry x="610" y="340" width="100" height="40" as="geometry" />
        </mxCell>
        <mxCell id="L0EKZaJUMJl1NmGvqvD9-3" value="ssn" style="ellipse;whiteSpace=wrap;html=1;align=center;fillColor=#f8cecc;strokeColor=#b85450;" parent="1" vertex="1">
          <mxGeometry x="390" y="470" width="100" height="40" as="geometry" />
        </mxCell>
      </root>
    </mxGraphModel>
  </diagram>
</mxfile>
